<mxfile host="65bd71144e">
    <diagram id="KPEARrJkwZRJKNdDiKyn" name="Page-1">
        <mxGraphModel dx="1883" dy="1320" grid="1" gridSize="10" guides="1" tooltips="1" connect="1" arrows="1" fold="1" page="1" pageScale="1" pageWidth="850" pageHeight="1100" math="0" shadow="0">
            <root>
                <mxCell id="0"/>
                <mxCell id="1" parent="0"/>
                <mxCell id="19" value="" style="edgeStyle=none;html=1;fontSize=50;strokeWidth=3;" edge="1" parent="1" source="11" target="18">
                    <mxGeometry relative="1" as="geometry"/>
                </mxCell>
                <mxCell id="11" value="bắt đầu" style="rounded=1;whiteSpace=wrap;html=1;fontSize=50;" vertex="1" parent="1">
                    <mxGeometry x="210" y="210" width="280" height="130" as="geometry"/>
                </mxCell>
                <mxCell id="21" value="" style="edgeStyle=none;html=1;strokeWidth=3;fontSize=50;" edge="1" parent="1" source="18" target="20">
                    <mxGeometry relative="1" as="geometry"/>
                </mxCell>
                <mxCell id="18" value="khai báo a,b,c,d" style="rounded=0;whiteSpace=wrap;html=1;fontSize=50;" vertex="1" parent="1">
                    <mxGeometry x="210" y="390" width="280" height="140" as="geometry"/>
                </mxCell>
                <mxCell id="23" value="" style="edgeStyle=none;html=1;strokeWidth=3;fontSize=50;" edge="1" parent="1" source="20" target="22">
                    <mxGeometry relative="1" as="geometry"/>
                </mxCell>
                <mxCell id="29" value="" style="edgeStyle=none;html=1;strokeWidth=3;fontSize=50;" edge="1" parent="1" source="20" target="28">
                    <mxGeometry relative="1" as="geometry"/>
                </mxCell>
                <mxCell id="20" value="nhập a,b,c" style="whiteSpace=wrap;html=1;fontSize=50;rounded=0;" vertex="1" parent="1">
                    <mxGeometry x="210" y="570" width="280" height="120" as="geometry"/>
                </mxCell>
                <mxCell id="25" value="" style="edgeStyle=none;html=1;strokeWidth=3;fontSize=50;" edge="1" parent="1" source="22" target="24">
                    <mxGeometry relative="1" as="geometry"/>
                </mxCell>
                <mxCell id="22" value="d=a*b*c" style="whiteSpace=wrap;html=1;fontSize=50;rounded=0;" vertex="1" parent="1">
                    <mxGeometry x="210" y="730" width="280" height="130" as="geometry"/>
                </mxCell>
                <mxCell id="27" value="" style="edgeStyle=none;html=1;strokeWidth=3;fontSize=50;" edge="1" parent="1" source="24" target="26">
                    <mxGeometry relative="1" as="geometry"/>
                </mxCell>
                <mxCell id="31" value="" style="edgeStyle=none;html=1;strokeWidth=3;fontSize=44;" edge="1" parent="1" source="24" target="30">
                    <mxGeometry relative="1" as="geometry"/>
                </mxCell>
                <mxCell id="24" value="in biến d" style="whiteSpace=wrap;html=1;fontSize=50;rounded=0;" vertex="1" parent="1">
                    <mxGeometry x="210" y="910" width="280" height="110" as="geometry"/>
                </mxCell>
                <mxCell id="26" value="end" style="rounded=1;whiteSpace=wrap;html=1;fontSize=50;" vertex="1" parent="1">
                    <mxGeometry x="210" y="1090" width="280" height="120" as="geometry"/>
                </mxCell>
                <mxCell id="28" value="&lt;font style=&quot;font-size: 44px;&quot;&gt;cin&amp;gt;&amp;gt;a&amp;gt;&amp;gt;b&amp;gt;&amp;gt;c&lt;/font&gt;" style="shape=process;whiteSpace=wrap;html=1;backgroundOutline=1;fontSize=50;rounded=0;" vertex="1" parent="1">
                    <mxGeometry x="630" y="570" width="390" height="130" as="geometry"/>
                </mxCell>
                <mxCell id="30" value="cout&amp;lt;&amp;lt;d" style="shape=process;whiteSpace=wrap;html=1;backgroundOutline=1;fontSize=50;rounded=0;" vertex="1" parent="1">
                    <mxGeometry x="650" y="910" width="260" height="110" as="geometry"/>
                </mxCell>
            </root>
        </mxGraphModel>
    </diagram>
</mxfile>
